<svg fill="none" height="24" viewBox="0 0 24 24" width="24" xmlns="http://www.w3.org/2000/svg"><g stroke="#292d32" stroke-linecap="round" stroke-linejoin="round" stroke-width="1.5"><path d="m12.6805 3.96c.48.71.76 1.56.76 2.48-.01 2.4-1.9 4.35-4.27995 4.43-.1-.01-.22-.01-.33 0-2.38-.08-4.27-2.03-4.27-4.43 0-2.45 1.98-4.44 4.44-4.44"/><path d="m16.4093 4c1.94 0 3.5 1.57 3.5 3.5 0 1.89-1.5 3.43-3.37 3.5-.08-.01-.17-.01-.26 0"/><path d="m4.1607 14.56c-2.42 1.62-2.42 4.26 0 5.87 2.75 1.84 7.26 1.84 10.01 0 2.42-1.62 2.42-4.26 0-5.87-2.74-1.83-7.25-1.83-10.01 0z"/><path d="m18.3398 20c.72-.15 1.4-.44 1.96-.87 1.56-1.17 1.56-3.1 0-4.27-.55-.42-1.22-.7-1.93-.86"/></g></svg>